PathFileType	4	(X/Y/Z)	C:/Users/beibeiliu/ov580/test_trc/User3\sequence.39_training_dense_right.trc
DataRate	CameraRate	NumFrames	NumMarkers	Units	OrigDataRate	OrigDataStartFrame	OrigNumFrames
120	120	12	19	mm	120	147	235
Frame#	Time	ThumbCMC			ThumbMCP			ThumbIP			ThumbTip			IndexMCP			IndexPIP			IndexTip			MiddleMCP			MiddlePIP			MiddleTip			RingMCP			RingPIP			RingTip			PinkyMCP			PinkyPIP			PinkyTip			BackHand1			BackHand2			BackHand3	
		X0	Y0	Z0	X1	Y1	Z1	X2	Y2	Z2	X3	Y3	Z3	X4	Y4	Z4	X5	Y5	Z5	X6	Y6	Z6	X7	Y7	Z7	X8	Y8	Z8	X9	Y9	Z9	X10	Y10	Z10	X11	Y11	Z11	X12	Y12	Z12	X13	Y13	Z13	X14	Y14	Z14	X15	Y15	Z15	X16	Y16	Z16	X17	Y17	Z17	X18	Y18	Z18	
146	1.21667	132.604	-13.8483	43.2447	126.375	7.63516	15.3104	111.877	4.0177	-7.83441	97.3756	-12.6752	-25.2906	125.814	-19.7855	-36.3786	94.9515	-11.3072	-47.107	85.4326	-10.6766	-16.4835	110.937	-33.8588	-36.9775	76.9753	-28.4825	-29.502	83.5625	-35.4332	7.4536	106.474	-55.7002	-33.3049	74.9442	-51.2008	-24.669	79.2652	-40.6197	4.11078	112.256	-73.6939	-24.2589	86.6085	-63.5319	-34.97	66.7199	-57.9621	-20.4913	146.479	-65.2973	8.49664	150.87	-71.6654	41.3894	153.404	-34.8497	29.8391	
147	1.225	131.205	-10.3139	39.4233	125.596	5.38449	16.1274	112.777	7.11009	-11.6	100.228	-12.3979	-24.8926	116.614	-20.5511	-37.7164	83.1814	-19.6971	-42.0579	82.2871	-22.2246	-9.2772	108.95	-40.2595	-38.2818	75.6554	-38.4638	-29.6843	83.3556	-47.0884	5.47955	106.976	-61.2916	-31.5007	78.2109	-62.0623	-24.4896	88.8852	-50.5616	10.3383	114.753	-76.7539	-26.4345	90.1955	-72.7826	-29.7391	82.1781	-69.6799	1.8238	149.941	-64.4236	9.68774	155.564	-68.7	42.4511	150.39	-32.2588	27.2735	
148	1.23333	135.754	-17.8553	40.6731	128.638	2.01643	15.9429	115.235	-4.20326	-14.7383	101.251	-7.77304	-31.3436	121.655	-21.8521	-35.2822	90.3533	-11.1566	-38.7794	89.7575	-17.7221	-3.81892	114.322	-37.3165	-37.3223	78.0339	-33.5468	-31.4972	84.6417	-38.3726	6.1435	105.9	-57.8045	-33.6942	78.417	-52.5664	-29.4857	78.0461	-46.0976	2.52434	110.463	-75.9007	-25.3274	85.6317	-68.1983	-33.4492	74.6348	-62.4389	-4.57024	144.349	-74.8741	7.92309	148.792	-75.3071	43.5622	155.038	-42.4315	24.6104	
149	1.24167	132.771	-20.8721	43.1171	125.353	-1.25968	16.4168	112.476	-5.87543	-16.4294	101.663	-7.92106	-34.5307	120.503	-26.2546	-36.1743	88.7418	-15.9117	-37.4637	90.2699	-14.2299	-4.73773	111.237	-39.7592	-37.7447	78.3429	-33.864	-27.9941	88.5803	-41.7032	9.01449	104.141	-62.716	-33.7516	77.0053	-55.7804	-25.6542	81.7593	-48.697	7.04499	111.382	-75.9818	-22.2635	86.5631	-66.7015	-31.6446	78.3339	-63.9278	0.468377	142.931	-76.1192	8.87918	147.191	-79.6722	37.5591	155.993	-43.4039	28.7615	
150	1.25	132.229	-15.6902	34.2766	119.363	-3.53661	7.29237	107.223	-8.09955	-25.6827	96.3556	-29.8941	-33.6042	120.147	-26.2226	-37.2805	86.654	-18.8877	-33.6795	93.8751	-17.4657	-1.90658	110.513	-48.3712	-36.9629	78.6412	-36.2737	-27.4483	91.4574	-41.2535	9.30332	105.75	-62.6618	-31.0487	76.6775	-55.1141	-23.4202	79.9601	-49.1229	9.95849	108.989	-79.259	-23.0925	81.471	-71.2637	-28.2417	71.7416	-62.7885	-3.40863	146.882	-74.0754	9.43245	150.402	-76.4964	39.2879	155.524	-44.9951	21.4763	
151	1.25833	132.902	-17.3471	39.344	122.627	-9.04825	10.6606	113.452	-6.62696	-16.7997	105.957	-4.19188	-37.2603	124.656	-20.8812	-33.0441	93.4803	-12.9453	-30.2629	95.6229	-22.7222	2.58461	111.473	-39.722	-34.4245	82.7574	-36.7515	-20.4998	96.3047	-38.7984	14.8027	110.199	-63.3976	-29.1939	79.4979	-52.0727	-20.6755	80.1345	-41.1372	9.54106	112.945	-81.3091	-24.7981	87.7982	-65.6348	-29.6044	69.7116	-61.7529	-10.3585	149.477	-73.0302	13.0719	151.469	-76.2097	40.9329	157.469	-44.437	31.3529	
152	1.26667	133.32	-19.35	43.6026	123.96	-9.31914	16.6639	112.434	-5.79366	-12.9426	103.097	-18.2346	-33.1359	125.574	-20.0447	-29.0069	94.4072	-11.3642	-23.8521	98.9114	-20.6297	7.44808	112.276	-33.7471	-31.383	84.7829	-28.9512	-16.3677	101.117	-41.8425	18.6511	107.852	-56.5256	-30.8367	81.4656	-50.6804	-21.7655	83.7543	-46.5991	12.1251	109.935	-77.391	-24.1012	81.549	-66.6772	-26.0879	70.7826	-53.4041	-2.45747	147.989	-75.4232	9.62739	151.949	-80.5733	39.4182	158.042	-45.3447	30.9456	
153	1.275	134.072	-23.7042	49.608	127.928	-7.23641	23.4148	122.71	-2.41373	-6.53236	117.854	6.61781	-28.4925	131.158	-22.4894	-26.9207	100.068	-12.4981	-24.8382	104.275	-17.4949	9.84075	117.271	-36.3525	-30.7037	86.1416	-29.0227	-16.7816	90.5382	-38.5053	18.0292	111.896	-57.6866	-27.3953	84.5894	-46.3485	-19.9103	84.8429	-43.4664	12.6658	106.625	-82.5693	-22.8779	85.2512	-59.6662	-26.1862	80.9419	-47.134	-1.52856	147.299	-77.1805	13.8058	146.147	-87.3079	44.1729	157.272	-49.0368	32.7209	
154	1.28333	139.792	-18.4014	39.9198	129.06	-8.4692	15.9363	126.008	5.91838	-12.1311	122.871	20.4079	-28.5868	124.151	-24.951	-31.4982	94.0694	-16.5227	-28.0287	100.723	-25.9044	5.80687	110.107	-42.297	-30.9757	83.4925	-35.3566	-14.7713	103.226	-40.074	19.316	104.104	-64.1904	-24.8625	79.0599	-54.0363	-10.8944	92.8491	-48.564	17.94	103.991	-83.4463	-19.7908	78.2723	-70.5834	-18.2004	71.3088	-56.7583	6.87747	145.476	-78.5035	11.9671	151.099	-83.5359	44.6731	158.019	-46.9962	27.8714	
155	1.29167	140.155	-19.5868	42.9664	135.148	-0.864011	17.9548	127.764	8.97471	-8.8169	123.385	13.9257	-30.7657	123.984	-25.6123	-26.9537	95.1027	-13.5662	-13.885	106.058	-23.9519	13.9399	112.823	-41.168	-27.375	86.4606	-31.6597	-9.89274	105.987	-39.7006	21.1398	107.16	-60.3718	-24.5114	81.9276	-45.375	-10.9591	100.367	-46.0088	19.6717	106.408	-80.3622	-19.0737	84.1723	-64.6651	-25.7358	72.8667	-51.6767	0.483102	144.562	-76.1519	15.2675	144.917	-84.2743	45.3656	158.456	-50.1588	30.8025	
156	1.3	139.687	-16.9085	40.173	132.677	-3.97149	16.3738	127.767	10.5345	-11.8145	116.662	10.4282	-30.7895	119.296	-19.551	-27.0298	91.1278	-15.0848	-13.8615	105.509	-29.1932	15.2023	109.864	-41.0459	-30.3973	85.0245	-31.365	-14.9691	105.944	-39.5412	20.4409	105.779	-57.0709	-24.2402	80.6853	-47.0974	-8.30252	95.2966	-43.4429	22.1156	106.187	-80.8569	-17.4506	80.7409	-66.6159	-20.8206	73.146	-49.4566	1.59607	145.508	-76.7011	15.9632	147.925	-79.4014	45.5409	157.151	-48.8959	29.0592	
157	1.30833	138.555	-20.0634	39.0093	133.73	0.3501	15.9577	120.705	6.92956	-14.3022	103.501	-6.0815	-25.3006	111.46	-19.967	-28.9848	81.1185	-15.4704	-16.5632	95.8046	-27.1771	12.7896	102.565	-39.5264	-32.2884	74.084	-33.7127	-13.6847	98.4449	-45.4281	17.7469	98.1565	-59.875	-25.2666	73.147	-48.1055	-10.5722	91.448	-44.6933	18.176	95.2781	-80.478	-20.7059	72.7009	-66.9659	-15.3154	79.3654	-52.7979	9.94704	142.47	-73.2119	4.14925	149.898	-80.8117	38.5079	154.142	-47.6455	22.7791	
